# xmcd CD database file generated by Grip 3.3.1
# 
# Track frame offsets:
#       150
#       18121
#       46181
#       72596
#       96908
#       102745
#       122135
#       134909
#       156252
#       181743
#       201409
#       222810
#       244227
# 
# Disc length: 3426 seconds
# 
# Revision: 1
# Processed by: cddbd v1.5.2PL0 Copyright (c) Steve Scherf et al.
# Submitted via: Grip 3.3.1
# 
DISCID=c50d600d
DTITLE=Georges Bizet - Bizet - Carmen [CD1)
DYEAR=1973
DGENRE=Classical
TTITLE0=Prelude
TTITLE1=Act I - Sur la place chacun passe (Chorus)
TTITLE2=Act I - Avec la garde montante (Chorus)
TTITLE3=Act I - La cloche a sonné (Chorus)
TTITLE4=Act I - Mais nous ne voyons pas la Carmencita! (Chorus)
TTITLE5=Act I - L'amour est un oiseau rebelle (Habanera) (Carmen)
TTITLE6=Act I - Carmen! Sur tes pas nous nous pressons tous! (Chorus)
TTITLE7=Act I - Parle-moi de ma mère! (Don José)
TTITLE8=Act I - Qui sait de quel démon j'allais être la proie! (Don Jos
TTITLE8=é)
TTITLE9=Act I - Au secours! Au secours! (Chorus)
TTITLE10=Act I - Avez-vous quelque chose à répondre? (Zuniga)
TTITLE11=Act I - Près des remparts de Séville (Sequedilla) (Carmen)
TTITLE12=Act I - Voici l'ordre - parlez, et faites bonne garde (Zuniga)
EXTD=
EXTT0=
EXTT1=
EXTT2=
EXTT3=
EXTT4=
EXTT5=
EXTT6=
EXTT7=
EXTT8=
EXTT9=
EXTT10=
EXTT11=
EXTT12=
PLAYORDER=
